<mxfile host="Electron" modified="2024-04-08T17:57:16.657Z" agent="Mozilla/5.0 (Windows NT 10.0; Win64; x64) AppleWebKit/537.36 (KHTML, like Gecko) draw.io/24.1.0 Chrome/120.0.6099.109 Electron/28.1.0 Safari/537.36" etag="apA7pu9VYXOrvYwaTac5" version="24.1.0" type="device">
  <diagram name="Page-1" id="e7e014a7-5840-1c2e-5031-d8a46d1fe8dd">
    <mxGraphModel dx="1843" dy="1725" grid="1" gridSize="10" guides="1" tooltips="1" connect="1" arrows="1" fold="1" page="1" pageScale="1" pageWidth="1169" pageHeight="826" background="none" math="0" shadow="0">
      <root>
        <mxCell id="0" />
        <mxCell id="1" parent="0" />
        <mxCell id="LCB57Vmr7wKY6c8nJuJc-48" style="edgeStyle=orthogonalEdgeStyle;rounded=0;orthogonalLoop=1;jettySize=auto;html=1;exitX=1;exitY=0.5;exitDx=0;exitDy=0;entryX=0;entryY=0.5;entryDx=0;entryDy=0;" parent="1" source="LCB57Vmr7wKY6c8nJuJc-42" target="LCB57Vmr7wKY6c8nJuJc-44" edge="1">
          <mxGeometry relative="1" as="geometry" />
        </mxCell>
        <mxCell id="LCB57Vmr7wKY6c8nJuJc-42" value="Випускник" style="html=1;whiteSpace=wrap;" parent="1" vertex="1">
          <mxGeometry x="100" y="70" width="110" height="50" as="geometry" />
        </mxCell>
        <mxCell id="LCB57Vmr7wKY6c8nJuJc-43" value="" style="endArrow=none;dashed=1;html=1;rounded=0;entryX=0.444;entryY=1.124;entryDx=0;entryDy=0;entryPerimeter=0;" parent="1" target="LCB57Vmr7wKY6c8nJuJc-42" edge="1">
          <mxGeometry width="50" height="50" relative="1" as="geometry">
            <mxPoint x="150" y="510" as="sourcePoint" />
            <mxPoint x="470" y="210" as="targetPoint" />
          </mxGeometry>
        </mxCell>
        <mxCell id="LCB57Vmr7wKY6c8nJuJc-49" style="edgeStyle=orthogonalEdgeStyle;rounded=0;orthogonalLoop=1;jettySize=auto;html=1;exitX=1;exitY=0.5;exitDx=0;exitDy=0;entryX=0;entryY=0.5;entryDx=0;entryDy=0;" parent="1" source="LCB57Vmr7wKY6c8nJuJc-44" target="LCB57Vmr7wKY6c8nJuJc-45" edge="1">
          <mxGeometry relative="1" as="geometry" />
        </mxCell>
        <mxCell id="LCB57Vmr7wKY6c8nJuJc-44" value="&lt;font style=&quot;font-size: 12px;&quot;&gt;&lt;br&gt;&lt;/font&gt;&lt;ul style=&quot;margin: 4px 0px; padding-inline-start: 1.125rem; color: rgb(31, 31, 31); font-family: &amp;quot;Google Sans&amp;quot;, &amp;quot;Helvetica Neue&amp;quot;, sans-serif; font-style: normal; font-variant-ligatures: normal; font-variant-caps: normal; font-weight: 400; letter-spacing: normal; orphans: 2; text-align: start; text-indent: 0px; text-transform: none; widows: 2; word-spacing: 0px; -webkit-text-stroke-width: 0px; background-color: rgb(255, 255, 255); text-decoration-thickness: initial; text-decoration-style: initial; text-decoration-color: initial;&quot; data-sourcepos=&quot;61:1-65:0&quot;&gt;&lt;li style=&quot;margin-bottom: 0px;&quot; data-sourcepos=&quot;61:1-61:23&quot;&gt;&lt;font size=&quot;3&quot;&gt;Мобільний додаток ЗНО&lt;/font&gt;&lt;/li&gt;&lt;/ul&gt;&lt;font size=&quot;3&quot;&gt;&lt;br&gt;&lt;/font&gt;" style="rounded=0;whiteSpace=wrap;html=1;" parent="1" vertex="1">
          <mxGeometry x="350" y="65" width="120" height="60" as="geometry" />
        </mxCell>
        <mxCell id="LCB57Vmr7wKY6c8nJuJc-45" value="&#xa;&lt;ul style=&quot;margin: 4px 0px; padding-inline-start: 1.125rem; color: rgb(31, 31, 31); font-family: &amp;quot;Google Sans&amp;quot;, &amp;quot;Helvetica Neue&amp;quot;, sans-serif; font-size: 16px; font-style: normal; font-variant-ligatures: normal; font-variant-caps: normal; font-weight: 400; letter-spacing: normal; orphans: 2; text-align: start; text-indent: 0px; text-transform: none; widows: 2; word-spacing: 0px; -webkit-text-stroke-width: 0px; background-color: rgb(255, 255, 255); text-decoration-thickness: initial; text-decoration-style: initial; text-decoration-color: initial;&quot; data-sourcepos=&quot;61:1-65:0&quot;&gt;&lt;li style=&quot;margin-bottom: 0px;&quot; data-sourcepos=&quot;62:1-62:12&quot;&gt;Сервер ЗНО&lt;/li&gt;&lt;/ul&gt;&#xa;&#xa;" style="rounded=0;whiteSpace=wrap;html=1;" parent="1" vertex="1">
          <mxGeometry x="600" y="65" width="160" height="60" as="geometry" />
        </mxCell>
        <mxCell id="LCB57Vmr7wKY6c8nJuJc-46" value="&#xa;&lt;ul style=&quot;margin: 4px 0px; padding-inline-start: 1.125rem; color: rgb(31, 31, 31); font-family: &amp;quot;Google Sans&amp;quot;, &amp;quot;Helvetica Neue&amp;quot;, sans-serif; font-size: 16px; font-style: normal; font-variant-ligatures: normal; font-variant-caps: normal; font-weight: 400; letter-spacing: normal; orphans: 2; text-align: start; text-indent: 0px; text-transform: none; widows: 2; word-spacing: 0px; -webkit-text-stroke-width: 0px; background-color: rgb(255, 255, 255); text-decoration-thickness: initial; text-decoration-style: initial; text-decoration-color: initial;&quot; data-sourcepos=&quot;61:1-65:0&quot;&gt;&lt;li style=&quot;margin-bottom: 0px;&quot; data-sourcepos=&quot;63:1-63:31&quot;&gt;Система навчальних матеріалів&lt;/li&gt;&lt;/ul&gt;&#xa;&#xa;" style="rounded=0;whiteSpace=wrap;html=1;" parent="1" vertex="1">
          <mxGeometry x="810" y="65" width="120" height="60" as="geometry" />
        </mxCell>
        <mxCell id="LCB57Vmr7wKY6c8nJuJc-47" value="&#xa;&lt;ul style=&quot;margin: 4px 0px; padding-inline-start: 1.125rem; color: rgb(31, 31, 31); font-family: &amp;quot;Google Sans&amp;quot;, &amp;quot;Helvetica Neue&amp;quot;, sans-serif; font-size: 16px; font-style: normal; font-variant-ligatures: normal; font-variant-caps: normal; font-weight: 400; letter-spacing: normal; orphans: 2; text-align: start; text-indent: 0px; text-transform: none; widows: 2; word-spacing: 0px; -webkit-text-stroke-width: 0px; background-color: rgb(255, 255, 255); text-decoration-thickness: initial; text-decoration-style: initial; text-decoration-color: initial;&quot; data-sourcepos=&quot;61:1-65:0&quot;&gt;&lt;li style=&quot;margin-bottom: 0px;&quot; data-sourcepos=&quot;64:1-65:0&quot;&gt;Система тестування&lt;/li&gt;&lt;/ul&gt;&#xa;&#xa;" style="rounded=0;whiteSpace=wrap;html=1;" parent="1" vertex="1">
          <mxGeometry x="585" y="-190" width="190" height="60" as="geometry" />
        </mxCell>
        <mxCell id="LCB57Vmr7wKY6c8nJuJc-51" value="" style="endArrow=none;dashed=1;html=1;rounded=0;entryX=0.427;entryY=1.047;entryDx=0;entryDy=0;entryPerimeter=0;" parent="1" target="LCB57Vmr7wKY6c8nJuJc-44" edge="1">
          <mxGeometry width="50" height="50" relative="1" as="geometry">
            <mxPoint x="400" y="560.7999877929688" as="sourcePoint" />
            <mxPoint x="670" y="230" as="targetPoint" />
          </mxGeometry>
        </mxCell>
        <mxCell id="LCB57Vmr7wKY6c8nJuJc-52" value="1.Авторизація" style="text;html=1;align=center;verticalAlign=middle;resizable=0;points=[];autosize=1;strokeColor=none;fillColor=none;" parent="1" vertex="1">
          <mxGeometry x="220" y="65" width="100" height="30" as="geometry" />
        </mxCell>
        <mxCell id="LCB57Vmr7wKY6c8nJuJc-53" value="&lt;span style=&quot;color: rgb(0, 0, 0); font-family: Helvetica; font-size: 12px; font-style: normal; font-variant-ligatures: normal; font-variant-caps: normal; font-weight: 400; letter-spacing: normal; orphans: 2; text-align: center; text-indent: 0px; text-transform: none; widows: 2; word-spacing: 0px; -webkit-text-stroke-width: 0px; background-color: rgb(251, 251, 251); text-decoration-thickness: initial; text-decoration-style: initial; text-decoration-color: initial; float: none; display: inline !important;&quot;&gt;2.Авторизація&lt;/span&gt;" style="text;whiteSpace=wrap;html=1;" parent="1" vertex="1">
          <mxGeometry x="490" y="70" width="110" height="40" as="geometry" />
        </mxCell>
        <mxCell id="LCB57Vmr7wKY6c8nJuJc-56" value="&lt;span style=&quot;color: rgb(31, 31, 31); font-family: &amp;quot;Google Sans&amp;quot;, &amp;quot;Helvetica Neue&amp;quot;, sans-serif; font-style: normal; font-variant-ligatures: normal; font-variant-caps: normal; font-weight: 400; letter-spacing: normal; orphans: 2; text-align: left; text-indent: 0px; text-transform: none; widows: 2; word-spacing: 0px; -webkit-text-stroke-width: 0px; background-color: rgb(255, 255, 255); text-decoration-thickness: initial; text-decoration-style: initial; text-decoration-color: initial; float: none; display: inline !important;&quot;&gt;&lt;font style=&quot;font-size: 12px;&quot;&gt;3. Вибір предметів ЗНО&lt;/font&gt;&lt;/span&gt;" style="text;whiteSpace=wrap;html=1;" parent="1" vertex="1">
          <mxGeometry x="450" y="180" width="180" height="20" as="geometry" />
        </mxCell>
        <mxCell id="LCB57Vmr7wKY6c8nJuJc-57" value="" style="endArrow=block;endFill=1;html=1;edgeStyle=orthogonalEdgeStyle;align=left;verticalAlign=top;rounded=0;" parent="1" edge="1">
          <mxGeometry x="-1" relative="1" as="geometry">
            <mxPoint x="400" y="320" as="sourcePoint" />
            <mxPoint x="650" y="320" as="targetPoint" />
          </mxGeometry>
        </mxCell>
        <mxCell id="LCB57Vmr7wKY6c8nJuJc-58" value="1" style="edgeLabel;resizable=0;html=1;align=left;verticalAlign=bottom;" parent="LCB57Vmr7wKY6c8nJuJc-57" connectable="0" vertex="1">
          <mxGeometry x="-1" relative="1" as="geometry" />
        </mxCell>
        <mxCell id="LCB57Vmr7wKY6c8nJuJc-59" value="&lt;span style=&quot;color: rgb(31, 31, 31); font-family: &amp;quot;Google Sans&amp;quot;, &amp;quot;Helvetica Neue&amp;quot;, sans-serif; font-style: normal; font-variant-ligatures: normal; font-variant-caps: normal; font-weight: 400; letter-spacing: normal; orphans: 2; text-align: left; text-indent: 0px; text-transform: none; widows: 2; word-spacing: 0px; -webkit-text-stroke-width: 0px; background-color: rgb(255, 255, 255); text-decoration-thickness: initial; text-decoration-style: initial; text-decoration-color: initial; float: none; display: inline !important;&quot;&gt;&lt;font style=&quot;font-size: 12px;&quot;&gt;4.Запит навчальних матеріалів&lt;/font&gt;&lt;/span&gt;" style="text;whiteSpace=wrap;html=1;" parent="1" vertex="1">
          <mxGeometry x="420" y="290" width="200" height="20" as="geometry" />
        </mxCell>
        <mxCell id="LCB57Vmr7wKY6c8nJuJc-60" value="&lt;span style=&quot;color: rgb(31, 31, 31); font-family: &amp;quot;Google Sans&amp;quot;, &amp;quot;Helvetica Neue&amp;quot;, sans-serif; font-style: normal; font-variant-ligatures: normal; font-variant-caps: normal; font-weight: 400; letter-spacing: normal; orphans: 2; text-align: left; text-indent: 0px; text-transform: none; widows: 2; word-spacing: 0px; -webkit-text-stroke-width: 0px; background-color: rgb(255, 255, 255); text-decoration-thickness: initial; text-decoration-style: initial; text-decoration-color: initial; float: none; display: inline !important;&quot;&gt;&lt;font style=&quot;font-size: 12px;&quot;&gt;5.Запит навчальних матеріалів&lt;/font&gt;&lt;/span&gt;" style="text;whiteSpace=wrap;html=1;" parent="1" vertex="1">
          <mxGeometry x="660" y="160" width="250" height="40" as="geometry" />
        </mxCell>
        <mxCell id="LCB57Vmr7wKY6c8nJuJc-64" value="" style="endArrow=none;dashed=1;html=1;rounded=0;entryX=0.437;entryY=1.02;entryDx=0;entryDy=0;entryPerimeter=0;" parent="1" edge="1">
          <mxGeometry width="50" height="50" relative="1" as="geometry">
            <mxPoint x="870" y="559" as="sourcePoint" />
            <mxPoint x="870" y="125" as="targetPoint" />
          </mxGeometry>
        </mxCell>
        <mxCell id="LCB57Vmr7wKY6c8nJuJc-65" value="" style="endArrow=block;endFill=1;html=1;edgeStyle=orthogonalEdgeStyle;align=left;verticalAlign=top;rounded=0;" parent="1" edge="1">
          <mxGeometry x="-1" relative="1" as="geometry">
            <mxPoint x="650" y="190" as="sourcePoint" />
            <mxPoint x="870" y="190" as="targetPoint" />
            <mxPoint as="offset" />
          </mxGeometry>
        </mxCell>
        <mxCell id="LCB57Vmr7wKY6c8nJuJc-66" value="1" style="edgeLabel;resizable=0;html=1;align=left;verticalAlign=bottom;" parent="LCB57Vmr7wKY6c8nJuJc-65" connectable="0" vertex="1">
          <mxGeometry x="-1" relative="1" as="geometry" />
        </mxCell>
        <mxCell id="LCB57Vmr7wKY6c8nJuJc-69" value="&lt;span style=&quot;color: rgb(31, 31, 31); font-family: &amp;quot;Google Sans&amp;quot;, &amp;quot;Helvetica Neue&amp;quot;, sans-serif; font-style: normal; font-variant-ligatures: normal; font-variant-caps: normal; font-weight: 400; letter-spacing: normal; orphans: 2; text-align: left; text-indent: 0px; text-transform: none; widows: 2; word-spacing: 0px; -webkit-text-stroke-width: 0px; background-color: rgb(255, 255, 255); text-decoration-thickness: initial; text-decoration-style: initial; text-decoration-color: initial; float: none; display: inline !important;&quot;&gt;&lt;font style=&quot;font-size: 12px;&quot;&gt;6.Надання навчальних матеріалів&lt;/font&gt;&lt;/span&gt;" style="text;whiteSpace=wrap;html=1;" parent="1" vertex="1">
          <mxGeometry x="660" y="250" width="200" height="20" as="geometry" />
        </mxCell>
        <mxCell id="LCB57Vmr7wKY6c8nJuJc-72" value="&lt;span style=&quot;color: rgb(31, 31, 31); font-family: &amp;quot;Google Sans&amp;quot;, &amp;quot;Helvetica Neue&amp;quot;, sans-serif; font-style: normal; font-variant-ligatures: normal; font-variant-caps: normal; font-weight: 400; letter-spacing: normal; orphans: 2; text-align: left; text-indent: 0px; text-transform: none; widows: 2; word-spacing: 0px; -webkit-text-stroke-width: 0px; background-color: rgb(255, 255, 255); text-decoration-thickness: initial; text-decoration-style: initial; text-decoration-color: initial; float: none; display: inline !important;&quot;&gt;&lt;font style=&quot;font-size: 12px;&quot;&gt;7. Надання навчальних матеріалів&lt;/font&gt;&lt;/span&gt;" style="text;whiteSpace=wrap;html=1;" parent="1" vertex="1">
          <mxGeometry x="430" y="370" width="200" height="20" as="geometry" />
        </mxCell>
        <mxCell id="LCB57Vmr7wKY6c8nJuJc-73" value="" style="endArrow=block;endFill=1;html=1;edgeStyle=orthogonalEdgeStyle;align=left;verticalAlign=top;rounded=0;" parent="1" edge="1">
          <mxGeometry x="-1" relative="1" as="geometry">
            <mxPoint x="405" y="440" as="sourcePoint" />
            <mxPoint x="655" y="440" as="targetPoint" />
          </mxGeometry>
        </mxCell>
        <mxCell id="LCB57Vmr7wKY6c8nJuJc-74" value="1" style="edgeLabel;resizable=0;html=1;align=left;verticalAlign=bottom;" parent="LCB57Vmr7wKY6c8nJuJc-73" connectable="0" vertex="1">
          <mxGeometry x="-1" relative="1" as="geometry">
            <mxPoint x="25" y="-80" as="offset" />
          </mxGeometry>
        </mxCell>
        <mxCell id="LCB57Vmr7wKY6c8nJuJc-76" value="&lt;span style=&quot;color: rgb(31, 31, 31); font-family: &amp;quot;Google Sans&amp;quot;, &amp;quot;Helvetica Neue&amp;quot;, sans-serif; font-style: normal; font-variant-ligatures: normal; font-variant-caps: normal; font-weight: 400; letter-spacing: normal; orphans: 2; text-align: left; text-indent: 0px; text-transform: none; widows: 2; word-spacing: 0px; -webkit-text-stroke-width: 0px; background-color: rgb(255, 255, 255); text-decoration-thickness: initial; text-decoration-style: initial; text-decoration-color: initial; float: none; display: inline !important;&quot;&gt;&lt;font style=&quot;font-size: 12px;&quot;&gt;8.Запит тесту&lt;/font&gt;&lt;/span&gt;" style="text;whiteSpace=wrap;html=1;" parent="1" vertex="1">
          <mxGeometry x="475" y="410" width="100" height="30" as="geometry" />
        </mxCell>
        <mxCell id="LCB57Vmr7wKY6c8nJuJc-80" value="9. Генерація тесту" style="text;whiteSpace=wrap;html=1;rotation=90;" parent="1" vertex="1">
          <mxGeometry x="555" y="-45" width="110" height="20" as="geometry" />
        </mxCell>
        <mxCell id="LCB57Vmr7wKY6c8nJuJc-81" style="edgeStyle=orthogonalEdgeStyle;rounded=0;orthogonalLoop=1;jettySize=auto;html=1;exitX=0.5;exitY=0;exitDx=0;exitDy=0;entryX=0.186;entryY=1.05;entryDx=0;entryDy=0;entryPerimeter=0;" parent="1" target="LCB57Vmr7wKY6c8nJuJc-47" edge="1">
          <mxGeometry relative="1" as="geometry">
            <mxPoint x="620" y="65" as="sourcePoint" />
            <mxPoint x="620.4000000000001" y="-94.18000000000006" as="targetPoint" />
          </mxGeometry>
        </mxCell>
        <mxCell id="LCB57Vmr7wKY6c8nJuJc-82" value="10. Надання тесту" style="text;whiteSpace=wrap;html=1;rotation=90;" parent="1" vertex="1">
          <mxGeometry x="607.5" y="-52.5" width="115" height="20" as="geometry" />
        </mxCell>
        <mxCell id="LCB57Vmr7wKY6c8nJuJc-84" value="" style="endArrow=block;endFill=1;html=1;edgeStyle=orthogonalEdgeStyle;align=left;verticalAlign=top;rounded=0;" parent="1" edge="1">
          <mxGeometry x="-1" relative="1" as="geometry">
            <mxPoint x="400" y="490" as="sourcePoint" />
            <mxPoint x="650" y="490" as="targetPoint" />
          </mxGeometry>
        </mxCell>
        <mxCell id="LCB57Vmr7wKY6c8nJuJc-85" value="1" style="edgeLabel;resizable=0;html=1;align=left;verticalAlign=bottom;" parent="LCB57Vmr7wKY6c8nJuJc-84" connectable="0" vertex="1">
          <mxGeometry x="-1" relative="1" as="geometry" />
        </mxCell>
        <mxCell id="LCB57Vmr7wKY6c8nJuJc-86" value="&lt;span style=&quot;color: rgb(31, 31, 31); font-family: &amp;quot;Google Sans&amp;quot;, &amp;quot;Helvetica Neue&amp;quot;, sans-serif; font-style: normal; font-variant-ligatures: normal; font-variant-caps: normal; font-weight: 400; letter-spacing: normal; orphans: 2; text-align: left; text-indent: 0px; text-transform: none; widows: 2; word-spacing: 0px; -webkit-text-stroke-width: 0px; background-color: rgb(255, 255, 255); text-decoration-thickness: initial; text-decoration-style: initial; text-decoration-color: initial; float: none; display: inline !important;&quot;&gt;&lt;font style=&quot;font-size: 12px;&quot;&gt;11. Проходження тесту&lt;/font&gt;&lt;/span&gt;" style="text;whiteSpace=wrap;html=1;" parent="1" vertex="1">
          <mxGeometry x="455" y="460" width="140" height="30" as="geometry" />
        </mxCell>
        <mxCell id="LCB57Vmr7wKY6c8nJuJc-89" style="edgeStyle=orthogonalEdgeStyle;rounded=0;orthogonalLoop=1;jettySize=auto;html=1;exitX=0.5;exitY=0;exitDx=0;exitDy=0;entryX=0.186;entryY=1.05;entryDx=0;entryDy=0;entryPerimeter=0;" parent="1" edge="1">
          <mxGeometry relative="1" as="geometry">
            <mxPoint x="690" y="62" as="sourcePoint" />
            <mxPoint x="690" y="-130" as="targetPoint" />
          </mxGeometry>
        </mxCell>
        <mxCell id="LCB57Vmr7wKY6c8nJuJc-90" value="12. Збір результатів тесту" style="text;whiteSpace=wrap;html=1;rotation=90;" parent="1" vertex="1">
          <mxGeometry x="627.5" y="-42.5" width="155" height="20" as="geometry" />
        </mxCell>
        <mxCell id="LCB57Vmr7wKY6c8nJuJc-91" value="" style="endArrow=none;dashed=1;html=1;rounded=0;entryX=0.323;entryY=1.067;entryDx=0;entryDy=0;entryPerimeter=0;" parent="1" target="LCB57Vmr7wKY6c8nJuJc-45" edge="1">
          <mxGeometry width="50" height="50" relative="1" as="geometry">
            <mxPoint x="652" y="580" as="sourcePoint" />
            <mxPoint x="670" y="120" as="targetPoint" />
          </mxGeometry>
        </mxCell>
        <mxCell id="LCB57Vmr7wKY6c8nJuJc-93" value="13. Аналіз результатів тесту" style="text;whiteSpace=wrap;html=1;rotation=90;" parent="1" vertex="1">
          <mxGeometry x="670" y="-40" width="170" height="20" as="geometry" />
        </mxCell>
        <mxCell id="LCB57Vmr7wKY6c8nJuJc-94" value="&lt;span style=&quot;color: rgb(31, 31, 31); font-family: &amp;quot;Google Sans&amp;quot;, &amp;quot;Helvetica Neue&amp;quot;, sans-serif; font-style: normal; font-variant-ligatures: normal; font-variant-caps: normal; font-weight: 400; letter-spacing: normal; orphans: 2; text-align: left; text-indent: 0px; text-transform: none; widows: 2; word-spacing: 0px; -webkit-text-stroke-width: 0px; background-color: rgb(255, 255, 255); text-decoration-thickness: initial; text-decoration-style: initial; text-decoration-color: initial; float: none; display: inline !important;&quot;&gt;&lt;font style=&quot;font-size: 12px;&quot;&gt;14. Надання результатів тесту&lt;/font&gt;&lt;/span&gt;" style="text;whiteSpace=wrap;html=1;" parent="1" vertex="1">
          <mxGeometry x="430" y="510" width="180" height="20" as="geometry" />
        </mxCell>
        <mxCell id="EH-ghxmzXCBHykpjtGiq-3" value="" style="html=1;verticalAlign=bottom;endArrow=open;dashed=1;endSize=8;curved=0;rounded=0;" edge="1" parent="1">
          <mxGeometry relative="1" as="geometry">
            <mxPoint x="660" y="210" as="sourcePoint" />
            <mxPoint x="395" y="210" as="targetPoint" />
          </mxGeometry>
        </mxCell>
        <mxCell id="EH-ghxmzXCBHykpjtGiq-4" value="" style="html=1;verticalAlign=bottom;endArrow=open;dashed=1;endSize=8;curved=0;rounded=0;" edge="1" parent="1">
          <mxGeometry relative="1" as="geometry">
            <mxPoint x="652.5" y="540" as="sourcePoint" />
            <mxPoint x="400" y="540" as="targetPoint" />
          </mxGeometry>
        </mxCell>
        <mxCell id="EH-ghxmzXCBHykpjtGiq-5" value="" style="html=1;verticalAlign=bottom;endArrow=open;dashed=1;endSize=8;curved=0;rounded=0;" edge="1" parent="1">
          <mxGeometry relative="1" as="geometry">
            <mxPoint x="657.5" y="390" as="sourcePoint" />
            <mxPoint x="392.5" y="390" as="targetPoint" />
          </mxGeometry>
        </mxCell>
        <mxCell id="EH-ghxmzXCBHykpjtGiq-7" value="" style="html=1;verticalAlign=bottom;endArrow=open;dashed=1;endSize=8;curved=0;rounded=0;" edge="1" parent="1">
          <mxGeometry relative="1" as="geometry">
            <mxPoint x="870" y="290" as="sourcePoint" />
            <mxPoint x="657.5" y="290" as="targetPoint" />
          </mxGeometry>
        </mxCell>
        <mxCell id="EH-ghxmzXCBHykpjtGiq-8" value="" style="html=1;verticalAlign=bottom;endArrow=open;dashed=1;endSize=8;curved=0;rounded=0;exitX=0.367;exitY=1.08;exitDx=0;exitDy=0;exitPerimeter=0;" edge="1" parent="1" source="LCB57Vmr7wKY6c8nJuJc-47">
          <mxGeometry relative="1" as="geometry">
            <mxPoint x="620" y="-40" as="sourcePoint" />
            <mxPoint x="650" y="60" as="targetPoint" />
          </mxGeometry>
        </mxCell>
        <mxCell id="EH-ghxmzXCBHykpjtGiq-10" value="" style="html=1;verticalAlign=bottom;endArrow=open;dashed=1;endSize=8;curved=0;rounded=0;exitX=0.367;exitY=1.08;exitDx=0;exitDy=0;exitPerimeter=0;" edge="1" parent="1">
          <mxGeometry relative="1" as="geometry">
            <mxPoint x="735" y="-130" as="sourcePoint" />
            <mxPoint x="740" y="60" as="targetPoint" />
          </mxGeometry>
        </mxCell>
      </root>
    </mxGraphModel>
  </diagram>
</mxfile>
